<svg xmlns="http://www.w3.org/2000/svg" viewBox="0 0 760 420" role="img" aria-labelledby="title desc">
  <title id="title">BAGEL teaser</title>
  <desc id="desc">White academic teaser for Bayesian active learning guided by LLM relevance scoring.</desc>
  <rect width="760" height="420" rx="24" fill="#ffffff"/>
  <rect x="22" y="22" width="716" height="376" rx="18" fill="#ffffff" stroke="#d8dde6" stroke-width="2"/>
  <text x="58" y="76" fill="#0f172a" font-family="Georgia, serif" font-size="34" font-weight="700">BAGEL</text>
  <text x="58" y="108" fill="#64748b" font-family="Arial, sans-serif" font-size="17" font-weight="600">Bayesian active learning for dense passage retrieval</text>
  <rect x="56" y="144" width="648" height="206" rx="16" fill="#f8fafc" stroke="#d8dde6"/>
  <text x="88" y="184" fill="#475569" font-family="Arial, sans-serif" font-size="15" font-weight="700">Embedding space</text>
  <ellipse cx="238" cy="246" rx="128" ry="62" fill="#dbeafe" opacity="0.9"/>
  <ellipse cx="500" cy="246" rx="132" ry="62" fill="#fee2e2" opacity="0.9"/>
  <circle cx="194" cy="238" r="10" fill="#1d4ed8"/>
  <circle cx="256" cy="222" r="10" fill="#1d4ed8"/>
  <circle cx="304" cy="268" r="10" fill="#1d4ed8"/>
  <circle cx="452" cy="220" r="10" fill="#8b1e3f"/>
  <circle cx="512" cy="252" r="10" fill="#8b1e3f"/>
  <circle cx="578" cy="276" r="10" fill="#8b1e3f"/>
  <circle cx="386" cy="246" r="18" fill="#ffffff" stroke="#0f766e" stroke-width="5"/>
  <text x="374" y="252" fill="#0f766e" font-family="Arial, sans-serif" font-size="18" font-weight="700">?</text>
  <path d="M364 164 C434 136, 504 150, 556 194" fill="none" stroke="#0f766e" stroke-width="4" stroke-linecap="round"/>
  <polygon points="556,194 538,190 550,176" fill="#0f766e"/>
  <text x="430" y="146" fill="#0f766e" font-family="Arial, sans-serif" font-size="14" font-weight="700">explore uncertainty</text>
  <rect x="91" y="304" width="184" height="28" rx="6" fill="#ffffff" stroke="#b8c2d0"/>
  <text x="108" y="324" fill="#1d4ed8" font-family="Arial, sans-serif" font-size="13" font-weight="700">LLM labels are sparse</text>
  <rect x="486" y="304" width="164" height="28" rx="6" fill="#ffffff" stroke="#b8c2d0"/>
  <text x="504" y="324" fill="#8b1e3f" font-family="Arial, sans-serif" font-size="13" font-weight="700">GP propagates scores</text>
</svg>
