<svg xmlns="http://www.w3.org/2000/svg" viewBox="0 0 760 420" role="img" aria-labelledby="title desc">
  <title id="title">Elaborative Query Reformulation teaser</title>
  <desc id="desc">White academic teaser for broad travel query reformulation into subtopics.</desc>
  <rect width="760" height="420" rx="24" fill="#ffffff"/>
  <rect x="22" y="22" width="716" height="376" rx="18" fill="#ffffff" stroke="#d8dde6" stroke-width="2"/>
  <text x="58" y="76" fill="#0f172a" font-family="Georgia, serif" font-size="34" font-weight="700">Elaborative Query Reformulation</text>
  <text x="58" y="108" fill="#64748b" font-family="Arial, sans-serif" font-size="17" font-weight="600">Broad travel requests into searchable subtopics</text>
  <rect x="64" y="158" width="230" height="142" rx="16" fill="#f8fafc" stroke="#d8dde6"/>
  <text x="88" y="196" fill="#475569" font-family="Arial, sans-serif" font-size="15" font-weight="700">User query</text>
  <text x="88" y="234" fill="#0f172a" font-family="Georgia, serif" font-size="23" font-weight="700">"quiet beach trip"</text>
  <path d="M326 230 C366 198, 410 198, 450 230" fill="none" stroke="#1d4ed8" stroke-width="4" stroke-linecap="round"/>
  <polygon points="450,230 434,221 437,241" fill="#1d4ed8"/>
  <rect x="484" y="140" width="208" height="180" rx="16" fill="#f8fafc" stroke="#d8dde6"/>
  <rect x="514" y="172" width="126" height="30" rx="8" fill="#ffffff" stroke="#b8c2d0"/>
  <text x="530" y="193" fill="#1d4ed8" font-family="Arial, sans-serif" font-size="13" font-weight="700">low crowd</text>
  <rect x="514" y="218" width="152" height="30" rx="8" fill="#ffffff" stroke="#b8c2d0"/>
  <text x="530" y="239" fill="#8b1e3f" font-family="Arial, sans-serif" font-size="13" font-weight="700">walkable coast</text>
  <rect x="514" y="264" width="122" height="30" rx="8" fill="#ffffff" stroke="#b8c2d0"/>
  <text x="530" y="285" fill="#0f766e" font-family="Arial, sans-serif" font-size="13" font-weight="700">boutique stay</text>
</svg>
