<svg xmlns="http://www.w3.org/2000/svg" viewBox="0 0 760 420" role="img" aria-labelledby="title desc">
  <title id="title">GPR-LLM teaser</title>
  <desc id="desc">White academic teaser for Gaussian process item scoring with LLM relevance judgments.</desc>
  <rect width="760" height="420" rx="24" fill="#ffffff"/>
  <rect x="22" y="22" width="716" height="376" rx="18" fill="#ffffff" stroke="#d8dde6" stroke-width="2"/>
  <text x="58" y="76" fill="#0f172a" font-family="Georgia, serif" font-size="34" font-weight="700">GPR-LLM</text>
  <text x="58" y="108" fill="#64748b" font-family="Arial, sans-serif" font-size="17" font-weight="600">Multimodal relevance scoring with sparse LLM labels</text>
  <rect x="58" y="154" width="206" height="168" rx="14" fill="#f8fafc" stroke="#d8dde6"/>
  <text x="84" y="188" fill="#475569" font-family="Arial, sans-serif" font-size="15" font-weight="700">Candidate items</text>
  <circle cx="112" cy="236" r="13" fill="#1d4ed8"/>
  <circle cx="162" cy="222" r="13" fill="#8b1e3f"/>
  <circle cx="210" cy="260" r="13" fill="#0f766e"/>
  <circle cx="132" cy="286" r="13" fill="#64748b"/>
  <circle cx="218" cy="218" r="13" fill="#f59e0b"/>
  <path d="M294 238 C338 188, 400 188, 444 238" fill="none" stroke="#1d4ed8" stroke-width="4" stroke-linecap="round"/>
  <polygon points="444,238 428,229 431,249" fill="#1d4ed8"/>
  <rect x="478" y="154" width="224" height="168" rx="14" fill="#f8fafc" stroke="#d8dde6"/>
  <text x="504" y="188" fill="#475569" font-family="Arial, sans-serif" font-size="15" font-weight="700">Gaussian Process</text>
  <path d="M516 270 C544 220, 574 220, 604 270 S664 320, 690 260" fill="none" stroke="#8b1e3f" stroke-width="5" stroke-linecap="round"/>
  <path d="M516 238 C548 194, 580 194, 612 238 S660 286, 690 230" fill="none" stroke="#bfdbfe" stroke-width="20" stroke-linecap="round" opacity="0.75"/>
  <line x1="516" y1="304" x2="690" y2="304" stroke="#94a3b8" stroke-width="2"/>
  <circle cx="548" cy="244" r="7" fill="#1d4ed8"/>
  <circle cx="612" cy="252" r="7" fill="#1d4ed8"/>
  <circle cx="668" cy="284" r="7" fill="#1d4ed8"/>
</svg>
