<svg xmlns="http://www.w3.org/2000/svg" viewBox="0 0 760 420" role="img" aria-labelledby="title desc">
  <title id="title">Medieval Latin Charters teaser</title>
  <desc id="desc">White academic teaser for semantic change analysis in Medieval Latin charters.</desc>
  <rect width="760" height="420" rx="24" fill="#ffffff"/>
  <rect x="22" y="22" width="716" height="376" rx="18" fill="#ffffff" stroke="#d8dde6" stroke-width="2"/>
  <text x="58" y="76" fill="#0f172a" font-family="Georgia, serif" font-size="34" font-weight="700">Medieval Latin Charters</text>
  <text x="58" y="108" fill="#64748b" font-family="Arial, sans-serif" font-size="17" font-weight="600">Static and contextual embeddings for semantic change</text>
  <rect x="74" y="144" width="220" height="206" rx="14" fill="#fffbeb" stroke="#d8dde6"/>
  <path d="M104 190 H260 M104 226 H248 M104 262 H268 M104 298 H232" stroke="#b45309" stroke-width="7" stroke-linecap="round" opacity="0.75"/>
  <text x="112" y="326" fill="#92400e" font-family="Georgia, serif" font-size="16" font-weight="700">charter text</text>
  <path d="M330 246 C374 206, 422 206, 466 246" fill="none" stroke="#1d4ed8" stroke-width="4" stroke-linecap="round"/>
  <polygon points="466,246 450,237 453,257" fill="#1d4ed8"/>
  <rect x="500" y="144" width="184" height="206" rx="14" fill="#f8fafc" stroke="#d8dde6"/>
  <circle cx="560" cy="220" r="18" fill="#1d4ed8"/>
  <circle cx="624" cy="202" r="18" fill="#8b1e3f"/>
  <circle cx="604" cy="278" r="18" fill="#0f766e"/>
  <line x1="560" y1="220" x2="624" y2="202" stroke="#94a3b8" stroke-width="3"/>
  <line x1="560" y1="220" x2="604" y2="278" stroke="#94a3b8" stroke-width="3"/>
  <line x1="624" y1="202" x2="604" y2="278" stroke="#94a3b8" stroke-width="3"/>
  <text x="532" y="326" fill="#64748b" font-family="Arial, sans-serif" font-size="14" font-weight="700">semantic drift</text>
</svg>
