<svg xmlns="http://www.w3.org/2000/svg" viewBox="0 0 760 420" role="img" aria-labelledby="title desc">
  <title id="title">MA-DPR teaser</title>
  <desc id="desc">White academic teaser for manifold-aware distance metrics in dense passage retrieval.</desc>
  <rect width="760" height="420" rx="24" fill="#ffffff"/>
  <rect x="22" y="22" width="716" height="376" rx="18" fill="#ffffff" stroke="#d8dde6" stroke-width="2"/>
  <text x="58" y="76" fill="#0f172a" font-family="Georgia, serif" font-size="34" font-weight="700">MA-DPR</text>
  <text x="58" y="108" fill="#64748b" font-family="Arial, sans-serif" font-size="17" font-weight="600">Manifold-aware distance for dense passage retrieval</text>
  <rect x="64" y="150" width="632" height="190" rx="16" fill="#f8fafc" stroke="#d8dde6"/>
  <path d="M112 282 C190 160, 302 160, 380 282 S572 360, 650 218" fill="none" stroke="#cbd5e1" stroke-width="34" stroke-linecap="round"/>
  <path d="M112 282 C190 160, 302 160, 380 282 S572 360, 650 218" fill="none" stroke="#1d4ed8" stroke-width="5" stroke-linecap="round"/>
  <circle cx="146" cy="236" r="11" fill="#8b1e3f"/>
  <circle cx="238" cy="178" r="11" fill="#8b1e3f"/>
  <circle cx="380" cy="282" r="12" fill="#0f766e"/>
  <circle cx="534" cy="306" r="11" fill="#8b1e3f"/>
  <circle cx="650" cy="218" r="12" fill="#0f766e"/>
  <line x1="146" y1="236" x2="650" y2="218" stroke="#94a3b8" stroke-width="3" stroke-dasharray="8 8"/>
  <text x="226" y="138" fill="#1d4ed8" font-family="Arial, sans-serif" font-size="14" font-weight="700">geodesic path follows the manifold</text>
  <text x="392" y="214" fill="#64748b" font-family="Arial, sans-serif" font-size="14" font-weight="700">Euclidean shortcut misses structure</text>
</svg>
