<svg xmlns="http://www.w3.org/2000/svg" viewBox="0 0 760 420" role="img" aria-labelledby="title desc">
  <title id="title">Scene-XR teaser</title>
  <desc id="desc">White academic teaser for in-situ item labeling in immersive conversational recommendation.</desc>
  <rect width="760" height="420" rx="24" fill="#ffffff"/>
  <rect x="22" y="22" width="716" height="376" rx="18" fill="#ffffff" stroke="#d8dde6" stroke-width="2"/>
  <text x="58" y="76" fill="#0f172a" font-family="Georgia, serif" font-size="34" font-weight="700">Scene-XR</text>
  <text x="58" y="108" fill="#64748b" font-family="Arial, sans-serif" font-size="17" font-weight="600">In-situ item labels for immersive recommendation</text>
  <rect x="76" y="144" width="306" height="210" rx="18" fill="#f8fafc" stroke="#d8dde6"/>
  <rect x="106" y="184" width="82" height="112" rx="10" fill="#dbeafe" stroke="#1d4ed8"/>
  <rect x="218" y="166" width="96" height="130" rx="10" fill="#fee2e2" stroke="#8b1e3f"/>
  <rect x="142" y="306" width="152" height="20" rx="10" fill="#e2e8f0"/>
  <rect x="306" y="154" width="120" height="34" rx="8" fill="#ffffff" stroke="#1d4ed8"/>
  <text x="322" y="176" fill="#1d4ed8" font-family="Arial, sans-serif" font-size="13" font-weight="700">price + material</text>
  <line x1="306" y1="188" x2="270" y2="198" stroke="#1d4ed8" stroke-width="3"/>
  <rect x="46" y="242" width="124" height="34" rx="8" fill="#ffffff" stroke="#8b1e3f"/>
  <text x="62" y="264" fill="#8b1e3f" font-family="Arial, sans-serif" font-size="13" font-weight="700">style cue</text>
  <line x1="170" y1="258" x2="218" y2="246" stroke="#8b1e3f" stroke-width="3"/>
  <path d="M420 246 C456 204, 506 204, 542 246" fill="none" stroke="#0f766e" stroke-width="4" stroke-linecap="round"/>
  <polygon points="542,246 525,237 529,257" fill="#0f766e"/>
  <rect x="572" y="166" width="116" height="134" rx="16" fill="#ffffff" stroke="#d8dde6"/>
  <circle cx="630" cy="208" r="24" fill="#0f172a"/>
  <path d="M596 262 C612 236, 648 236, 664 262" fill="none" stroke="#0f172a" stroke-width="7" stroke-linecap="round"/>
  <text x="574" y="330" fill="#64748b" font-family="Arial, sans-serif" font-size="14" font-weight="700">explicit + proactive needs</text>
</svg>
