<svg xmlns="http://www.w3.org/2000/svg" viewBox="0 0 760 420" role="img" aria-labelledby="title desc">
  <title id="title">Semantic XPath teaser</title>
  <desc id="desc">White academic teaser for structured agentic memory access.</desc>
  <rect width="760" height="420" rx="24" fill="#ffffff"/>
  <rect x="22" y="22" width="716" height="376" rx="18" fill="#ffffff" stroke="#d8dde6" stroke-width="2"/>
  <text x="58" y="76" fill="#0f172a" font-family="Georgia, serif" font-size="34" font-weight="700">Semantic XPath</text>
  <text x="58" y="108" fill="#64748b" font-family="Arial, sans-serif" font-size="17" font-weight="600">Structured memory access for conversational agents</text>
  <rect x="58" y="148" width="210" height="190" rx="14" fill="#f8fafc" stroke="#d8dde6"/>
  <text x="82" y="182" fill="#475569" font-family="Arial, sans-serif" font-size="15" font-weight="700">Conversation XML</text>
  <line x1="164" y1="204" x2="164" y2="302" stroke="#94a3b8" stroke-width="3"/>
  <circle cx="164" cy="204" r="16" fill="#1d4ed8"/>
  <circle cx="112" cy="254" r="15" fill="#8b1e3f"/>
  <circle cx="216" cy="254" r="15" fill="#8b1e3f"/>
  <circle cx="164" cy="302" r="15" fill="#0f766e"/>
  <line x1="164" y1="220" x2="112" y2="239" stroke="#94a3b8" stroke-width="3"/>
  <line x1="164" y1="220" x2="216" y2="239" stroke="#94a3b8" stroke-width="3"/>
  <text x="92" y="338" fill="#64748b" font-family="Arial, sans-serif" font-size="13">turns, entities, events</text>
  <path d="M286 244 C338 204, 392 204, 444 244" fill="none" stroke="#1d4ed8" stroke-width="4" stroke-linecap="round"/>
  <polygon points="444,244 428,235 431,255" fill="#1d4ed8"/>
  <rect x="478" y="148" width="224" height="190" rx="14" fill="#f8fafc" stroke="#d8dde6"/>
  <text x="504" y="182" fill="#475569" font-family="Arial, sans-serif" font-size="15" font-weight="700">XPath query</text>
  <rect x="510" y="208" width="154" height="30" rx="6" fill="#ffffff" stroke="#b8c2d0"/>
  <text x="526" y="229" fill="#1d4ed8" font-family="Menlo, monospace" font-size="13">//user/intent</text>
  <rect x="510" y="252" width="122" height="30" rx="6" fill="#ffffff" stroke="#b8c2d0"/>
  <text x="526" y="273" fill="#8b1e3f" font-family="Menlo, monospace" font-size="13">//memory/*</text>
  <rect x="510" y="296" width="170" height="30" rx="6" fill="#ffffff" stroke="#b8c2d0"/>
  <text x="526" y="317" fill="#0f766e" font-family="Menlo, monospace" font-size="13">ranked evidence</text>
</svg>
